HIERARCHY
ROOT Hips
{
	OFFSET 0.000000 0.000000 0.000000
	CHANNELS 6 Xposition Yposition Zposition Zrotation Yrotation Xrotation 
	JOINT LHipJoint
	{
		OFFSET 0.000000 0.000000 0.000000
		CHANNELS 3 Zrotation Yrotation Xrotation
		JOINT LeftUpLeg
		{
			OFFSET 1.363060 -1.794630 0.839290
			CHANNELS 3 Zrotation Yrotation Xrotation
			JOINT LeftLeg
			{
				OFFSET 2.448110 -6.726130 0.000000
				CHANNELS 3 Zrotation Yrotation Xrotation
				JOINT LeftFoot
				{
					OFFSET 2.562200 -7.039590 0.000000
					CHANNELS 3 Zrotation Yrotation Xrotation
					JOINT LeftToeBase
					{
						OFFSET 0.157640 -0.433110 2.322550
						CHANNELS 3 Zrotation Yrotation Xrotation
						End Site
						{
							OFFSET 0.000000 0.000000 0.000000
						}
					}
				}
			}
		}
	}
	JOINT RHipJoint
	{
		OFFSET 0.000000 0.000000 0.000000
		CHANNELS 3 Zrotation Yrotation Xrotation
		JOINT RightUpLeg
		{
			OFFSET -1.305520 -1.794630 0.839290
			CHANNELS 3 Zrotation Yrotation Xrotation
			JOINT RightLeg
			{
				OFFSET -2.542530 -6.985550 0.000000
				CHANNELS 3 Zrotation Yrotation Xrotation
				JOINT RightFoot
				{
					OFFSET -2.568260 -7.056230 0.000000
					CHANNELS 3 Zrotation Yrotation Xrotation
					JOINT RightToeBase
					{
						OFFSET -0.164730 -0.452590 2.363150
						CHANNELS 3 Zrotation Yrotation Xrotation
						End Site
						{
							OFFSET 0.000000 0.000000 0.000000
						}
					}
				}
			}
		}
	}
	JOINT LowerBack
	{
		OFFSET 0.000000 0.000000 0.000000
		CHANNELS 3 Zrotation Yrotation Xrotation
		JOINT Spine
		{
			OFFSET 0.028270 2.035590 -0.193380
			CHANNELS 3 Zrotation Yrotation Xrotation
			JOINT Spine1
			{
				OFFSET 0.056720 2.048850 -0.042750
				CHANNELS 3 Zrotation Yrotation Xrotation
				JOINT Neck
				{
					OFFSET 0.000000 0.000000 0.000000
					CHANNELS 3 Zrotation Yrotation Xrotation
					JOINT Neck1
					{
						OFFSET -0.054170 1.746240 0.172020
						CHANNELS 3 Zrotation Yrotation Xrotation
						JOINT Head
						{
							OFFSET 0.104070 1.761360 -0.123970
							CHANNELS 3 Zrotation Yrotation Xrotation
							End Site
							{
								OFFSET 0.000000 0.000000 0.000000
							}
						}
					}
				}
				JOINT LeftShoulder
				{
					OFFSET 0.000000 0.000000 0.000000
					CHANNELS 3 Zrotation Yrotation Xrotation
					JOINT LeftArm
					{
						OFFSET 3.362410 1.200890 -0.311210
						CHANNELS 3 Zrotation Yrotation Xrotation
						JOINT LeftForeArm
						{
							OFFSET 4.983000 -0.000000 -0.000000
							CHANNELS 3 Zrotation Yrotation Xrotation
							JOINT LeftHand
							{
								OFFSET 3.483560 -0.000000 -0.000000
								CHANNELS 3 Zrotation Yrotation Xrotation
								JOINT LeftFingerBase
								{
									OFFSET 0.000000 0.000000 0.000000
									CHANNELS 3 Zrotation Yrotation Xrotation
									JOINT LeftHandIndex1
									{
										OFFSET 0.715260 -0.000000 -0.000000
										CHANNELS 3 Zrotation Yrotation Xrotation
										End Site
										{
											OFFSET 0.000000 0.000000 0.000000
										}
									}
								}
								JOINT LThumb
								{
									OFFSET 0.000000 0.000000 0.000000
									CHANNELS 3 Zrotation Yrotation Xrotation
									End Site
									{
										OFFSET 0.000000 0.000000 0.000000
									}
								}
							}
						}
					}
				}
				JOINT RightShoulder
				{
					OFFSET 0.000000 0.000000 0.000000
					CHANNELS 3 Zrotation Yrotation Xrotation
					JOINT RightArm
					{
						OFFSET -3.136600 1.374050 -0.404650
						CHANNELS 3 Zrotation Yrotation Xrotation
						JOINT RightForeArm
						{
							OFFSET -5.241900 -0.000000 -0.000000
							CHANNELS 3 Zrotation Yrotation Xrotation
							JOINT RightHand
							{
								OFFSET -3.444170 -0.000000 -0.000000
								CHANNELS 3 Zrotation Yrotation Xrotation
								JOINT RightFingerBase
								{
									OFFSET 0.000000 0.000000 0.000000
									CHANNELS 3 Zrotation Yrotation Xrotation
									JOINT RightHandIndex1
									{
										OFFSET -0.622530 -0.000000 -0.000000
										CHANNELS 3 Zrotation Yrotation Xrotation
										End Site
										{
											OFFSET 0.000000 0.000000 0.000000
										}
									}
								}
								JOINT RThumb
								{
									OFFSET 0.000000 0.000000 0.000000
									CHANNELS 3 Zrotation Yrotation Xrotation
									End Site
									{
										OFFSET 0.000000 0.000000 0.000000
									}
								}
							}
						}
					}
				}
			}
		}
	}
}
MOTION
Frames: 10
Frame Time: 0.008333
-4.753044 17.507500 22.667855 -1.532452 6.340234 28.436534 4.136780 -6.141480 -8.621666 -11.237285 2.433962 -44.217128 4.280916 17.896969 44.232513 0.682688 4.120013 8.615270 0.533800 -4.681700 -13.003000 -5.594561 4.395171 -7.440654 13.367740 3.532699 -43.825944 -4.224496 -19.801865 46.307983 3.735150 -11.957228 1.132861 -0.549200 4.747400 -13.189500 2.697540 1.805178 -3.713910 0.818014 1.816074 -28.691329 -2.455656 0.471600 -6.925887 -7.209433 -5.466947 -21.284978 5.131679 -6.052193 21.020355 1.357200 -2.598100 15.085900 -16.587291 -9.526706 2.664472 -63.414307 -1.560889 20.311313 132.016997 -48.299064 -98.465409 2.702494 -1.333839 28.943798 12.768919 15.337689 2.614100 -7.125000 0.000000 0.000000 -16.526800 44.918500 0.034200 17.914021 10.637320 4.111004 54.076710 4.335966 22.086804 -130.146488 45.279014 -96.422043 -1.406475 0.785055 37.808011 -8.752384 -8.626372 1.053700 7.125000 0.000000 0.000000 16.789000 -37.948700 3.017200 
-4.752932 17.507388 22.668193 -1.530500 6.339373 28.432487 4.131042 -6.141931 -8.618936 -11.228597 2.430189 -44.196717 4.274172 17.890181 44.214992 0.701647 4.087902 8.645488 0.523300 -4.635900 -12.873000 -5.592493 4.394333 -7.439861 13.361836 3.539165 -43.818750 -4.221569 -19.800919 46.304716 3.729279 -11.947167 1.091574 -0.544000 4.725500 -13.127200 2.710263 1.816511 -3.711089 0.789913 1.821475 -28.690637 -2.475552 0.473022 -6.924468 -7.191997 -5.474562 -21.292632 5.117908 -6.068104 21.048013 1.345900 -2.602900 15.106200 -16.585553 -9.528764 2.665302 -63.411538 -1.585774 20.326393 132.004729 -48.303804 -98.455852 2.702996 -1.333237 28.974356 12.765612 15.354562 2.615600 -7.125000 0.000000 0.000000 -16.534700 44.932200 0.028500 17.913634 10.637437 4.109191 54.103977 4.331081 22.074492 -130.147967 45.278519 -96.424152 -1.402404 0.786431 37.817791 -8.730065 -8.579456 1.045300 7.125000 0.000000 0.000000 16.794800 -37.905000 3.037000 
-4.753044 17.508625 22.668980 -1.534354 6.330434 28.421497 4.125089 -6.136473 -8.612757 -11.221450 2.431168 -44.178095 4.265051 17.882624 44.190680 0.718457 4.060737 8.668951 0.524100 -4.639300 -12.882700 -5.583639 4.399139 -7.438663 13.355781 3.545365 -43.794880 -4.214983 -19.792274 46.283296 3.730922 -11.951229 1.100831 -0.537100 4.695900 -13.043200 2.642355 1.848935 -3.867895 0.768359 1.858716 -28.592323 -2.448064 0.503858 -6.791657 -7.184253 -5.499529 -21.243219 5.113266 -6.113616 20.990784 1.336600 -2.622300 15.055900 -16.581063 -9.541830 2.667760 -63.461376 -1.806795 20.400261 131.865177 -48.361760 -98.352712 2.696305 -1.337078 29.180989 12.687753 15.353948 2.594500 -7.125000 0.000000 0.000000 -16.598100 44.917600 0.034700 17.910353 10.640995 4.105134 54.087645 4.352233 21.916211 -130.144749 45.281585 -96.429764 -1.397843 0.781386 37.841272 -8.630682 -8.594869 1.033200 7.125000 0.000000 0.000000 16.874500 -37.911100 3.049900 
-4.753607 17.511660 22.669317 -1.517553 6.323417 28.416090 4.113668 -6.139891 -8.610304 -11.233623 2.439577 -44.158709 4.255383 17.871545 44.162924 0.710119 4.079294 8.692185 0.524500 -4.641300 -12.888200 -5.579021 4.395200 -7.438455 13.350626 3.518752 -43.780024 -4.209428 -19.781983 46.255030 3.737821 -11.964650 1.164688 -0.546900 4.737700 -13.161900 2.682052 1.829246 -3.743431 0.762926 1.832179 -28.668300 -2.473141 0.482631 -6.899965 -7.189804 -5.473729 -21.253594 5.113304 -6.070969 21.070952 1.343800 -2.604000 15.113500 -16.583157 -9.529071 2.663499 -63.431653 -1.599263 20.350206 131.977516 -48.316880 -98.435943 2.698863 -1.335520 29.015958 12.729292 15.324868 2.601600 -7.125000 0.000000 0.000000 -16.555300 44.900500 0.041800 17.912956 10.635647 4.103484 54.161195 4.295366 22.068477 -130.189649 45.261309 -96.459732 -1.392723 0.772390 37.717408 -8.527958 -8.603388 1.020300 7.125000 0.000000 0.000000 16.953700 -37.911700 3.064900 
-4.753831 17.514133 22.669767 -1.510873 6.318740 28.408389 4.104305 -6.139830 -8.606411 -11.236143 2.444446 -44.138464 4.245927 17.861759 44.135738 0.710256 4.082718 8.717265 0.524700 -4.642300 -12.891200 -5.572104 4.394732 -7.437581 13.347584 3.503387 -43.761159 -4.201041 -19.770882 46.225927 3.736419 -11.963303 1.192952 -0.546600 4.736600 -13.158800 2.680794 1.831722 -3.730712 0.750496 1.832519 -28.674905 -2.478199 0.482862 -6.912865 -7.191511 -5.469988 -21.236949 5.111044 -6.066304 21.094493 1.344000 -2.602100 15.126400 -16.582518 -9.526992 2.662195 -63.435621 -1.570122 20.357195 131.982772 -48.316205 -98.439019 2.698198 -1.335263 29.003483 12.724914 15.318878 2.599700 -7.125000 0.000000 0.000000 -16.556700 44.894800 0.044300 17.913689 10.633932 4.100536 54.202610 4.266257 22.090422 -130.235941 45.240409 -96.499264 -1.383756 0.759372 37.615973 -8.337055 -8.625299 0.996400 7.125000 0.000000 0.000000 17.103900 -37.917500 3.091600 
-4.754169 17.516832 22.670104 -1.504723 6.316729 28.400624 4.094745 -6.139997 -8.602749 -11.239561 2.450286 -44.118792 4.236381 17.851483 44.106815 0.703284 4.099316 8.741379 0.527900 -4.655900 -12.929700 -5.564869 4.394143 -7.436512 13.346226 3.485864 -43.742255 -4.192371 -19.759139 46.195779 3.735240 -11.962297 1.221925 -0.546400 4.735500 -13.155700 2.681254 1.833434 -3.718058 0.739199 1.832147 -28.681091 -2.483626 0.482467 -6.925418 -7.193622 -5.466131 -21.221491 5.108001 -6.060844 21.117665 1.343900 -2.600100 15.139200 -16.582006 -9.524857 2.660909 -63.437947 -1.537936 20.365792 131.989354 -48.314895 -98.443036 2.697477 -1.334514 28.982867 12.719070 15.315177 2.597900 -7.125000 0.000000 0.000000 -16.560100 44.891200 0.045800 17.914911 10.632174 4.097488 54.244550 4.235736 22.113506 -130.292429 45.214562 -96.547760 -1.373762 0.744398 37.500673 -8.118022 -8.654726 0.969300 7.125000 0.000000 0.000000 17.277400 -37.927800 3.120700 
-4.754506 17.519417 22.670441 -1.498191 6.315958 28.392908 4.085466 -6.140122 -8.599171 -11.244432 2.456854 -44.100356 4.228139 17.842106 44.080960 0.692067 4.123189 8.761939 0.532200 -4.674800 -12.983400 -5.557895 4.393447 -7.435412 13.344679 3.469815 -43.723759 -4.184172 -19.748095 46.167624 3.735772 -11.964454 1.246436 -0.546300 4.735100 -13.154600 2.682711 1.834185 -3.701984 0.729154 1.830853 -28.689042 -2.488961 0.481569 -6.940247 -7.196682 -5.461850 -21.208937 5.104475 -6.054195 21.141886 1.343700 -2.597700 15.153300 -16.581603 -9.522454 2.659564 -63.438344 -1.500106 20.375627 131.999607 -48.312087 -98.449574 2.697041 -1.333305 28.956330 12.714669 15.315242 2.597000 -7.125000 0.000000 0.000000 -16.563300 44.891300 0.045700 17.916231 10.630370 4.094737 54.282113 4.206811 22.138334 -130.344196 45.190704 -96.592059 -1.364602 0.730952 37.396472 -7.919746 -8.679802 0.944500 7.125000 0.000000 0.000000 17.434100 -37.935800 3.147600 
-4.754843 17.521666 22.670778 -1.492387 6.316855 28.386643 4.076928 -6.140232 -8.595887 -11.247876 2.461251 -44.083194 4.219722 17.833232 44.054911 0.682890 4.143422 8.783560 0.535600 -4.689200 -13.024100 -5.551444 4.393223 -7.434511 13.342680 3.456050 -43.707042 -4.176694 -19.738068 46.141438 3.737737 -11.969027 1.266382 -0.545600 4.732200 -13.146300 2.680366 1.837146 -3.700472 0.718436 1.831974 -28.689349 -2.492468 0.482593 -6.943067 -7.199569 -5.460226 -21.196102 5.100263 -6.051551 21.160203 1.342500 -2.597100 15.163200 -16.580983 -9.521209 2.658488 -63.439467 -1.478470 20.392585 132.002623 -48.312078 -98.450473 2.696608 -1.331813 28.944533 12.706007 15.322641 2.596100 -7.125000 0.000000 0.000000 -16.572400 44.897000 0.043400 17.917268 10.628859 4.092135 54.308546 4.183189 22.148712 -130.383349 45.172873 -96.625973 -1.357616 0.720988 37.324555 -7.769576 -8.697997 0.925500 7.125000 0.000000 0.000000 17.552500 -37.941100 3.168300 
-4.755293 17.523577 22.671003 -1.486170 6.319436 28.382011 4.068709 -6.140710 -8.593005 -11.250449 2.463974 -44.066752 4.210681 17.824148 44.027298 0.674266 4.162575 8.807359 0.538100 -4.700200 -13.055300 -5.545477 4.393312 -7.433821 13.339054 3.446690 -43.691654 -4.169983 -19.729413 46.116965 3.744682 -11.982873 1.284760 -0.545300 4.731000 -13.142800 2.678146 1.839280 -3.701774 0.709110 1.832336 -28.688020 -2.495400 0.483211 -6.942005 -7.202036 -5.458777 -21.190865 5.094631 -6.048394 21.177813 1.340300 -2.596300 15.174000 -16.580333 -9.520353 2.657547 -63.438623 -1.458907 20.407193 132.006433 -48.311224 -98.452326 2.696070 -1.330449 28.935681 12.695109 15.329276 2.594300 -7.125000 0.000000 0.000000 -16.583100 44.901600 0.041500 17.918209 10.627666 4.090205 54.324989 4.167027 22.158615 -130.407264 45.162100 -96.646495 -1.353604 0.715216 37.283632 -7.682876 -8.708890 0.914500 7.125000 0.000000 0.000000 17.621000 -37.944300 3.180200 
-4.755743 17.525488 22.671453 -1.479896 6.320824 28.378428 4.060413 -6.141032 -8.589966 -11.252617 2.466639 -44.049838 4.200365 17.814288 43.996417 0.667863 4.178127 8.834892 0.539700 -4.706900 -13.074500 -5.539455 4.393898 -7.433409 13.334375 3.438244 -43.676704 -4.163329 -19.720795 46.091865 3.752377 -11.998132 1.307304 -0.545500 4.731700 -13.144800 2.671266 1.841740 -3.713014 0.702801 1.833897 -28.680527 -2.494129 0.485353 -6.931822 -7.211089 -5.459533 -21.187451 5.091087 -6.046262 21.188760 1.340000 -2.596600 15.180900 -16.579986 -9.520002 2.656553 -63.437294 -1.443435 20.419929 132.012153 -48.309497 -98.455731 2.697253 -1.331135 28.933278 12.712674 15.326703 2.598400 -7.125000 0.000000 0.000000 -16.568000 44.901500 0.041500 17.919161 10.626635 4.088897 54.326398 4.159243 22.167042 -130.419178 45.156724 -96.656371 -1.353045 0.711965 37.278558 -7.646192 -8.732522 0.911700 7.125000 0.000000 0.000000 17.654600 -37.962400 3.178500 
